<?xml version="1.0" encoding="utf-8"?>
<!-- Generator: Adobe Illustrator 16.0.4, SVG Export Plug-In . SVG Version: 6.00 Build 0)  -->
<!DOCTYPE svg PUBLIC "-//W3C//DTD SVG 1.1//EN" "http://www.w3.org/Graphics/SVG/1.1/DTD/svg11.dtd">
<svg version="1.1" id="Layer_1" xmlns="http://www.w3.org/2000/svg" xmlns:xlink="http://www.w3.org/1999/xlink" x="0px" y="0px"
	 width="5445.0019531px" height="648px" viewBox="0 0 5445.0019531 648" enable-background="new 0 0 5445.0019531 648"
	 xml:space="preserve">
<g>
	<path fill="#DD2626" d="M590.9609375,321c0,35.4199219-6.7207031,68.4804688-20.1601562,99.2001953
		s-31.7910156,57.2802734-55.0410156,79.6796875c-23.2597656,22.4003906-50.5585938,40-81.9199219,52.7998047
		c-31.359375,12.8007812-64.75,19.2001953-100.1591797,19.2001953c-35.8408203,0-69.3408203-6.3994141-100.4794922-19.2001953
		c-31.1503906-12.7998047-58.3505859-30.3994141-81.6005859-52.7998047
		C128.3398438,477.4804688,110,450.9199219,96.5605469,420.2001953S76.4003906,356.4199219,76.4003906,321
		c0-35.4101562,6.7207031-68.4799805,20.1601562-99.2001953C110,191.0800781,128.3398438,164.5200195,151.6005859,142.1201172
		c23.25-22.3999023,50.4501953-40,81.6005859-52.800293c31.1386719-12.7998047,64.6386719-19.199707,100.4794922-19.199707
		c35.4091797,0,68.7998047,6.3999023,100.1591797,19.199707c31.3613281,12.800293,58.6601562,30.4003906,81.9199219,52.800293
		c23.25,22.3999023,41.6015625,48.9599609,55.0410156,79.6796875C584.2402344,252.5200195,590.9609375,285.5898438,590.9609375,321z
		 M497.5195312,321c0-22.6098633-4.2695312-43.8398438-12.7988281-63.6801758
		c-8.5410156-19.8398438-20.1601562-37.1196289-34.8808594-51.8398438
		c-14.71875-14.7202148-32.109375-26.3398438-52.1591797-34.8798828c-20.0595703-8.5302734-41.3896484-12.800293-64-12.800293
		c-22.6201172,0-43.8408203,4.2700195-63.6806641,12.800293c-19.8398438,8.5400391-37.1191406,20.159668-51.8398438,34.8798828
		c-14.7197266,14.7202148-26.3496094,32-34.8798828,51.8398438C174.7402344,277.1601562,170.4804688,298.3901367,170.4804688,321
		c0,22.6201172,4.2597656,43.9501953,12.7998047,64c8.5302734,20.0595703,20.1601562,37.4404297,34.8798828,52.1601562
		c14.7207031,14.7197266,32,26.3496094,51.8398438,34.8798828c19.8398438,8.5400391,41.0605469,12.7998047,63.6806641,12.7998047
		c22.6103516,0,43.9404297-4.2597656,64-12.7998047c20.0498047-8.5302734,37.4404297-20.1601562,52.1591797-34.8798828
		C464.5605469,422.4404297,476.1796875,405.0595703,484.7207031,385C493.25,364.9501953,497.5195312,343.6201172,497.5195312,321z"
		/>
	<path fill="#DD2626" d="M1063.2753906,233.9599609c-14.5097656-23.0400391-33.8203125-41.4897461-57.9199219-55.3598633
		c-24.109375-13.8598633-50.8789062-20.800293-80.3203125-20.800293c-22.6191406,0-43.8398438,4.2700195-63.6796875,12.800293
		c-19.8398438,8.5400391-37.1191406,20.159668-51.8398438,34.8798828c-14.71875,14.7202148-26.3496094,32-34.8789062,51.8398438
		C766.0957031,277.1601562,761.8359375,298.3901367,761.8359375,321c0,22.6201172,4.2597656,43.9501953,12.8007812,64
		c8.5292969,20.0595703,20.1601562,37.4404297,34.8789062,52.1601562c14.7207031,14.7197266,32,26.3496094,51.8398438,34.8798828
		c19.8398438,8.5400391,41.0605469,12.7998047,63.6796875,12.7998047c29.4414062,0,56.2109375-6.9296875,80.3203125-20.7998047
		c24.0996094-13.8603516,43.4101562-32.3203125,57.9199219-55.3603516l74.2402344,46.0800781
		c-11.0996094,17.9199219-24.21875,34.0302734-39.359375,48.3203125
		c-15.1503906,14.2998047-31.9003906,26.5595703-50.2402344,36.7998047
		c-18.3496094,10.2402344-37.8691406,18.1396484-58.5605469,23.6796875
		c-20.6992188,5.5400391-42.1386719,8.3203125-64.3203125,8.3203125c-35.4199219,0-68.7988281-6.3994141-100.1601562-19.2001953
		c-31.359375-12.7998047-58.6699219-30.3994141-81.9199219-52.7998047
		c-23.2597656-22.3994141-41.5996094-48.9599609-55.0390625-79.6796875S667.7558594,356.4199219,667.7558594,321
		c0-35.4101562,6.7207031-68.4799805,20.1601562-99.2001953c13.4394531-30.7197266,31.7792969-57.2797852,55.0390625-79.6796875
		c23.25-22.3999023,50.5605469-40,81.9199219-52.800293c31.3613281-12.7998047,64.7402344-19.199707,100.1601562-19.199707
		c22.1816406,0,43.6210938,2.7797852,64.3203125,8.3198242c20.6914062,5.550293,40.2109375,13.4399414,58.5605469,23.6801758
		c18.3398438,10.2397461,35.0898438,22.6201172,50.2402344,37.1201172c15.140625,14.5097656,28.2597656,30.5097656,39.359375,48
		L1063.2753906,233.9599609z"/>
	<path fill="#DD2626" d="M1434.4667969,168.6801758V561h-90.2402344V168.6801758h-142.7207031V81H1575.90625v87.6801758
		H1434.4667969z"/>
	<path fill="#FFFFFF" d="M2010.4707031,561h-97.28125l-30.71875-87.0400391h-179.2011719L1673.1894531,561h-98.5605469
		l169.6015625-480h97.9199219L2010.4707031,561z M1851.75,386.2802734l-56.3203125-195.2001953h-5.1191406l-56.3203125,195.2001953
		H1851.75z"/>
	<path fill="#FFFFFF" d="M2470.6289062,244.8398438c0,34.5600586-9.0703125,64.8603516-27.1992188,90.8808594
		c-18.140625,26.0292969-41.5,45.2294922-70.0800781,57.5996094L2457.1894531,561h-101.1210938l-76.1601562-152.3203125h-98.5585938
		V561H2090.46875V81h211.1992188c23.4609375,0,45.4414062,4.1601562,65.9199219,12.4799805
		c20.4804688,8.3198242,38.4003906,19.7402344,53.7617188,34.2402344
		c15.359375,14.5097656,27.4101562,31.7895508,36.1601562,51.8398438
		C2466.2480469,199.6201172,2470.6289062,221.3798828,2470.6289062,244.8398438z M2377.828125,244.8398438
		c0-10.659668-2.0292969-20.5800781-6.0800781-29.7597656c-4.0585938-9.1699219-9.5-17.1699219-16.3183594-24
		c-6.8300781-6.8203125-14.9414062-12.2602539-24.3203125-16.3203125
		c-9.390625-4.0498047-19.2011719-6.0795898-29.4414062-6.0795898h-120.3183594V321h120.3183594
		c10.2402344,0,20.0507812-2.0195312,29.4414062-6.0800781c9.3789062-4.0498047,17.4902344-9.4902344,24.3203125-16.3198242
		c6.8183594-6.8203125,12.2597656-14.8203125,16.3183594-24
		C2375.7988281,265.4301758,2377.828125,255.5097656,2377.828125,244.8398438z"/>
	<path fill="#FFFFFF" d="M2946.7792969,244.8398438c0,34.5600586-9.0703125,64.8603516-27.1992188,90.8808594
		c-18.140625,26.0292969-41.5,45.2294922-70.0800781,57.5996094L2933.3398438,561H2832.21875l-76.1601562-152.3203125H2657.5V561
		h-90.8808594V81h211.1992188c23.4609375,0,45.4414062,4.1601562,65.9199219,12.4799805
		c20.4804688,8.3198242,38.4003906,19.7402344,53.7617188,34.2402344
		c15.359375,14.5097656,27.4101562,31.7895508,36.1601562,51.8398438
		C2942.3984375,199.6201172,2946.7792969,221.3798828,2946.7792969,244.8398438z M2853.9785156,244.8398438
		c0-10.659668-2.0292969-20.5800781-6.0800781-29.7597656c-4.0585938-9.1699219-9.5-17.1699219-16.3183594-24
		c-6.8300781-6.8203125-14.9414062-12.2602539-24.3203125-16.3203125
		c-9.390625-4.0498047-19.2011719-6.0795898-29.4414062-6.0795898H2657.5V321h120.3183594
		c10.2402344,0,20.0507812-2.0195312,29.4414062-6.0800781c9.3789062-4.0498047,17.4902344-9.4902344,24.3203125-16.3198242
		c6.8183594-6.8203125,12.2597656-14.8203125,16.3183594-24
		C2851.9492188,265.4301758,2853.9785156,255.5097656,2853.9785156,244.8398438z"/>
	<path fill="#FFFFFF" d="M3438.296875,561h-97.28125l-30.71875-87.0400391h-179.2011719L3101.015625,561h-98.5605469
		l169.6015625-480h97.9199219L3438.296875,561z M3279.5761719,386.2802734l-56.3203125-195.2001953h-5.1191406
		l-56.3203125,195.2001953H3279.5761719z"/>
	<path fill="#FFFFFF" d="M3895.2558594,561h-89.6015625l-195.1992188-320h-1.9199219l0.640625,320h-90.8808594V81h90.8808594
		L3804.375,401.6396484h1.9199219L3805.6542969,81h89.6015625V561z"/>
	<path fill="#FFFFFF" d="M4436.0546875,484.2001953c-23.0390625,26.8798828-50.9902344,48.2197266-83.8398438,64
		c-32.859375,15.7802734-68.4804688,23.6796875-106.8808594,23.6796875c-35.4199219,0-68.7988281-6.3994141-100.1601562-19.2001953
		c-31.359375-12.7998047-58.6699219-30.3994141-81.9199219-52.7998047
		c-23.2597656-22.3994141-41.5996094-48.9599609-55.0390625-79.6796875S3988.0546875,356.4199219,3988.0546875,321
		c0-35.4101562,6.7207031-68.4799805,20.1601562-99.2001953c13.4394531-30.7197266,31.7792969-57.2797852,55.0390625-79.6796875
		c23.25-22.3999023,50.5605469-40,81.9199219-52.800293c31.3613281-12.7998047,64.7402344-19.199707,100.1601562-19.199707
		c34.5605469,0,67.0898438,6.6201172,97.6015625,19.8398438c30.5,13.2299805,57.2792969,31.3598633,80.3183594,54.3999023
		l-62.0800781,61.4399414c-14.9394531-14.9296875-32.21875-26.659668-51.8398438-35.199707
		c-19.6289062-8.5302734-40.9589844-12.800293-64-12.800293c-22.6191406,0-43.7382812,4.2700195-63.359375,12.800293
		c-19.6289062,8.5400391-36.9101562,20.159668-51.8398438,34.8798828c-14.9394531,14.7202148-26.6699219,32-35.1992188,51.8398438
		c-8.5410156,19.840332-12.8007812,41.0703125-12.8007812,63.6801758c0,22.6201172,4.2597656,43.9501953,12.8007812,64
		c8.5292969,20.0595703,20.2597656,37.4404297,35.1992188,52.1601562
		c14.9296875,14.7197266,32.2109375,26.3496094,51.8398438,34.8798828
		c19.6210938,8.5400391,40.7402344,12.7998047,63.359375,12.7998047c20.0507812,0,38.8203125-3.2998047,56.3203125-9.9199219
		c17.4902344-6.6103516,33.4902344-15.6796875,48-27.2001953v-83.2001953h-104.3203125v-87.6796875h190.7207031V484.2001953z"/>
	<path fill="#FFFFFF" d="M4894.9257812,473.9599609V561h-352.640625V81h352.640625v87.6801758h-261.7597656v108.159668h217.5996094
		v87.6796875h-217.5996094v109.4404297H4894.9257812z"/>
	<path fill="#FFFFFF" d="M5367.8828125,244.8398438c0,34.5600586-9.0703125,64.8603516-27.1992188,90.8808594
		c-18.140625,26.0292969-41.5,45.2294922-70.0800781,57.5996094L5354.4433594,561h-101.1210938l-76.1601562-152.3203125h-98.5585938
		V561h-90.8808594V81h211.1992188c23.4609375,0,45.4414062,4.1601562,65.9199219,12.4799805
		c20.4804688,8.3198242,38.4003906,19.7402344,53.7617188,34.2402344
		c15.359375,14.5097656,27.4101562,31.7895508,36.1601562,51.8398438
		C5363.5019531,199.6201172,5367.8828125,221.3798828,5367.8828125,244.8398438z M5275.0820312,244.8398438
		c0-10.659668-2.0292969-20.5800781-6.0800781-29.7597656c-4.0585938-9.1699219-9.5-17.1699219-16.3183594-24
		c-6.8300781-6.8203125-14.9414062-12.2602539-24.3203125-16.3203125
		c-9.390625-4.0498047-19.2011719-6.0795898-29.4414062-6.0795898h-120.3183594V321h120.3183594
		c10.2402344,0,20.0507812-2.0195312,29.4414062-6.0800781c9.3789062-4.0498047,17.4902344-9.4902344,24.3203125-16.3198242
		c6.8183594-6.8203125,12.2597656-14.8203125,16.3183594-24
		C5273.0527344,265.4301758,5275.0820312,255.5097656,5275.0820312,244.8398438z"/>
</g>
</svg>
