<?xml version="1.0" standalone="no"?>
<!DOCTYPE svg PUBLIC "-//W3C//DTD SVG 20010904//EN"
 "http://www.w3.org/TR/2001/REC-SVG-20010904/DTD/svg10.dtd">
<svg version="1.0" xmlns="http://www.w3.org/2000/svg"
 width="504.000000pt" height="504.000000pt" viewBox="0 0 504.000000 504.000000"
 preserveAspectRatio="xMidYMid meet">
<metadata>
Created by potrace 1.11, written by Peter Selinger 2001-2013
</metadata>
<g transform="translate(0.000000,504.000000) scale(0.100000,-0.100000)"
fill="#000000" stroke="none">
<path d="M0 4635 l0 -315 2520 0 2520 0 0 315 0 315 -2520 0 -2520 0 0 -315z
m540 180 l0 -45 -225 0 -225 0 0 45 0 45 225 0 225 0 0 -45z m270 1 c0 -39 3
-45 23 -48 12 -2 32 -2 45 0 19 4 22 11 22 48 l0 44 45 0 45 0 0 -45 0 -45 45
0 45 0 0 45 0 45 45 0 45 0 0 -45 0 -45 45 0 45 0 0 45 0 45 45 0 45 0 0 -45
0 -45 45 0 45 0 0 45 0 45 45 0 45 0 0 -45 0 -45 45 0 45 0 0 45 0 45 45 0 45
0 0 -45 0 -45 45 0 45 0 0 45 0 45 45 0 45 0 0 -45 0 -45 45 0 45 0 0 45 0 45
45 0 45 0 0 -45 0 -45 45 0 45 0 0 45 0 45 45 0 45 0 0 -45 0 -45 45 0 45 0 0
45 0 45 45 0 45 0 0 -45 0 -45 45 0 45 0 0 45 0 45 45 0 45 0 0 -45 0 -45 45
0 45 0 0 45 0 45 45 0 45 0 0 -45 0 -45 45 0 45 0 0 45 0 45 45 0 45 0 0 -45
0 -45 45 0 45 0 0 45 0 45 45 0 45 0 0 -45 0 -45 45 0 45 0 0 -45 0 -45 -45 0
-45 0 0 -45 0 -45 45 0 45 0 0 -45 0 -45 -45 0 -45 0 0 -45 0 -45 -45 0 -45 0
0 45 0 45 -45 0 -45 0 0 -45 0 -45 -45 0 -45 0 0 45 0 45 -45 0 -45 0 0 -45 0
-45 -45 0 -45 0 0 45 0 45 -45 0 -45 0 0 -45 0 -45 -45 0 -45 0 0 45 0 45 -45
0 -45 0 0 -45 0 -45 -45 0 -45 0 0 45 0 45 -45 0 -45 0 0 -45 0 -45 -45 0 -45
0 0 45 0 45 -45 0 -45 0 0 -45 0 -45 -45 0 -45 0 0 45 0 45 -45 0 -45 0 0 -45
0 -45 -45 0 -45 0 0 45 0 45 -45 0 -45 0 0 -45 0 -45 -45 0 -45 0 0 45 0 45
-45 0 -45 0 0 -45 0 -45 -45 0 -45 0 0 45 0 45 -45 0 -45 0 0 -45 0 -45 -45 0
-45 0 0 45 0 45 -45 0 -45 0 0 -45 0 -45 -45 0 -45 0 0 45 0 45 -45 0 -45 0 0
-45 0 -45 -45 0 -45 0 0 45 0 45 -45 0 -45 0 0 -45 0 -45 -45 0 -45 0 0 45 0
45 45 0 45 0 0 45 0 45 -45 0 -45 0 0 45 0 45 45 0 45 0 0 45 0 45 -45 0 -45
0 0 45 0 45 45 0 45 0 0 -44z m3060 1 c0 -24 2 -46 4 -48 3 -3 23 -3 45 -1
l41 4 0 44 0 44 45 0 45 0 0 -45 0 -45 45 0 45 0 0 45 0 45 45 0 45 0 0 -45 0
-45 45 0 45 0 0 45 0 45 45 0 45 0 0 -45 0 -45 45 0 45 0 0 45 0 45 45 0 45 0
0 -45 0 -45 45 0 45 0 0 45 0 45 45 0 45 0 0 -44 c0 -39 3 -45 23 -48 12 -2
32 -2 45 0 19 4 22 11 22 48 l0 44 45 0 45 0 0 -45 0 -45 -45 0 -45 0 0 -45 0
-45 45 0 45 0 0 -45 0 -45 -45 0 -45 0 0 -45 0 -45 45 0 45 0 0 -45 0 -45 -45
0 -45 0 0 45 0 45 -45 0 -45 0 0 -45 0 -45 -45 0 -45 0 0 45 0 45 -45 0 -45 0
0 -45 0 -45 -45 0 -45 0 0 45 0 45 -45 0 -45 0 0 -45 0 -45 -45 0 -45 0 0 45
0 45 -45 0 -45 0 0 -45 0 -45 -45 0 -45 0 0 45 0 45 -45 0 -45 0 0 -45 0 -45
-45 0 -45 0 0 45 0 45 -45 0 -45 0 0 -45 0 -45 -45 0 -45 0 0 45 0 45 45 0 45
0 0 45 0 45 -45 0 -45 0 0 45 0 45 45 0 45 0 0 45 0 45 -45 0 -45 0 0 45 0 45
45 0 45 0 0 -43z m-3330 -182 l0 -45 -225 0 -225 0 0 45 0 45 225 0 225 0 0
-45z m0 -180 l0 -45 -225 0 -225 0 0 45 0 45 225 0 225 0 0 -45z"/>
<path d="M900 4725 l0 -45 -45 0 -45 0 0 -45 0 -45 45 0 45 0 0 -45 0 -45 45
0 45 0 0 45 0 45 45 0 45 0 0 -45 0 -45 45 0 45 0 0 45 0 45 45 0 45 0 0 -45
0 -45 45 0 45 0 0 45 0 45 45 0 45 0 0 -45 0 -45 45 0 45 0 0 45 0 45 45 0 45
0 0 -45 0 -45 45 0 45 0 0 45 0 45 45 0 45 0 0 -45 0 -45 45 0 45 0 0 45 0 45
45 0 45 0 0 -45 0 -45 45 0 45 0 0 45 0 45 45 0 45 0 0 -45 0 -45 45 0 45 0 0
45 0 45 45 0 45 0 0 -45 0 -45 45 0 45 0 0 45 0 45 45 0 45 0 0 -45 0 -45 45
0 45 0 0 45 0 45 45 0 45 0 0 -45 0 -45 45 0 45 0 0 45 0 45 45 0 45 0 0 -45
0 -45 45 0 45 0 0 45 0 45 45 0 45 0 0 -45 0 -45 45 0 45 0 0 45 0 45 -45 0
-45 0 0 45 0 45 45 0 45 0 0 45 0 45 -45 0 -45 0 0 -45 0 -45 -45 0 -45 0 0
45 0 45 -45 0 -45 0 0 -45 0 -45 -45 0 -45 0 0 45 0 45 -45 0 -45 0 0 -45 0
-45 -45 0 -45 0 0 45 0 45 -45 0 -45 0 0 -45 0 -45 -45 0 -45 0 0 45 0 45 -45
0 -45 0 0 -45 0 -45 -45 0 -45 0 0 45 0 45 -45 0 -45 0 0 -45 0 -45 -45 0 -45
0 0 45 0 45 -45 0 -45 0 0 -45 0 -45 -45 0 -45 0 0 45 0 45 -45 0 -45 0 0 -45
0 -45 -45 0 -45 0 0 45 0 45 -45 0 -45 0 0 -45 0 -45 -45 0 -45 0 0 45 0 45
-45 0 -45 0 0 -45 0 -45 -45 0 -45 0 0 45 0 45 -45 0 -45 0 0 -45 0 -45 -45 0
-45 0 0 45 0 45 -45 0 -45 0 0 -45 0 -45 -45 0 -45 0 0 45 0 45 -45 0 -45 0 0
-45z m90 -90 l0 -45 -45 0 -45 0 0 45 0 45 45 0 45 0 0 -45z m180 0 l0 -45
-45 0 -45 0 0 45 0 45 45 0 45 0 0 -45z m180 0 l0 -45 -45 0 -45 0 0 45 0 45
45 0 45 0 0 -45z m180 0 l0 -45 -45 0 -45 0 0 45 0 45 45 0 45 0 0 -45z m180
0 l0 -45 -45 0 -45 0 0 45 0 45 45 0 45 0 0 -45z m180 0 l0 -45 -45 0 -45 0 0
45 0 45 45 0 45 0 0 -45z m180 0 l0 -45 -45 0 -45 0 0 45 0 45 45 0 45 0 0
-45z m180 0 l0 -45 -45 0 -45 0 0 45 0 45 45 0 45 0 0 -45z m180 0 l0 -45 -45
0 -45 0 0 45 0 45 45 0 45 0 0 -45z m180 0 l0 -45 -45 0 -45 0 0 45 0 45 45 0
45 0 0 -45z m180 0 l0 -45 -45 0 -45 0 0 45 0 45 45 0 45 0 0 -45z m180 0 l0
-45 -45 0 -45 0 0 45 0 45 45 0 45 0 0 -45z"/>
<path d="M3960 4725 l0 -45 -45 0 -45 0 0 -45 0 -45 45 0 45 0 0 -45 0 -45 45
0 45 0 0 45 0 45 45 0 45 0 0 -45 0 -45 45 0 45 0 0 45 0 45 45 0 45 0 0 -45
0 -45 45 0 45 0 0 45 0 45 45 0 45 0 0 -45 0 -45 45 0 45 0 0 45 0 45 45 0 45
0 0 -45 0 -45 45 0 45 0 0 45 0 45 45 0 45 0 0 45 0 45 -45 0 -45 0 0 45 0 45
-45 0 -45 0 0 -45 0 -45 -45 0 -45 0 0 45 0 45 -45 0 -45 0 0 -45 0 -45 -45 0
-45 0 0 45 0 45 -45 0 -45 0 0 -45 0 -45 -45 0 -45 0 0 45 0 45 -45 0 -45 0 0
-45 0 -45 -45 0 -45 0 0 45 0 45 -45 0 -45 0 0 -45z m90 -90 l0 -45 -45 0 -45
0 0 45 0 45 45 0 45 0 0 -45z m180 0 l0 -45 -45 0 -45 0 0 45 0 45 45 0 45 0
0 -45z m180 0 l0 -45 -45 0 -45 0 0 45 0 45 45 0 45 0 0 -45z m180 0 l0 -45
-45 0 -45 0 0 45 0 45 45 0 45 0 0 -45z m180 0 l0 -45 -45 0 -45 0 0 45 0 45
45 0 45 0 0 -45z"/>
<path d="M0 4185 l0 -45 45 0 45 0 0 -45 0 -45 45 0 45 0 0 -45 0 -45 -45 0
-45 0 0 -45 0 -45 -45 0 -45 0 0 -45 0 -45 45 0 45 0 0 45 0 45 45 0 45 0 0
45 0 45 45 0 45 0 0 45 0 45 -45 0 -45 0 0 45 0 45 -45 0 -45 0 0 45 0 45 -45
0 -45 0 0 -45z"/>
<path d="M360 4005 l0 -225 135 0 135 0 0 225 0 225 -135 0 -135 0 0 -225z
m180 0 l0 -135 -45 0 -45 0 0 135 0 135 45 0 45 0 0 -135z"/>
<path d="M720 4005 l0 -225 135 0 135 0 0 225 0 225 -135 0 -135 0 0 -225z
m180 0 l0 -135 -45 0 -45 0 0 135 0 135 45 0 45 0 0 -135z"/>
<path d="M1080 4005 l0 -225 135 0 135 0 0 225 0 225 -135 0 -135 0 0 -225z
m180 0 l0 -135 -45 0 -45 0 0 135 0 135 45 0 45 0 0 -135z"/>
<path d="M1530 4185 l0 -45 45 0 45 0 0 45 0 45 -45 0 -45 0 0 -45z"/>
<path d="M1800 2115 l0 -2115 675 0 675 0 0 2115 0 2115 -675 0 -675 0 0
-2115z m990 0 l0 -1755 -315 0 -315 0 0 1755 0 1755 315 0 315 0 0 -1755z"/>
<path d="M3330 2115 l0 -2115 180 0 180 0 0 945 0 945 315 0 315 0 0 -945 0
-945 180 0 180 0 0 2115 0 2115 -675 0 -675 0 0 -2115z m990 945 l0 -810 -315
0 -315 0 0 810 0 810 315 0 315 0 0 -810z"/>
<path d="M4950 4185 l0 -45 -45 0 -45 0 0 -45 0 -45 -45 0 -45 0 0 -45 0 -45
45 0 45 0 0 -45 0 -45 45 0 45 0 0 -45 0 -45 45 0 45 0 0 45 0 45 -45 0 -45 0
0 45 0 45 -45 0 -45 0 0 45 0 45 45 0 45 0 0 45 0 45 45 0 45 0 0 45 0 45 -45
0 -45 0 0 -45z"/>
<path d="M1530 4005 l0 -45 45 0 45 0 0 45 0 45 -45 0 -45 0 0 -45z"/>
<path d="M1530 3825 l0 -45 45 0 45 0 0 45 0 45 -45 0 -45 0 0 -45z"/>
<path d="M360 3465 l0 -225 135 0 135 0 0 225 0 225 -135 0 -135 0 0 -225z
m180 0 l0 -135 -45 0 -45 0 0 135 0 135 45 0 45 0 0 -135z"/>
<path d="M720 3465 l0 -225 135 0 135 0 0 225 0 225 -135 0 -135 0 0 -225z
m180 0 l0 -135 -45 0 -45 0 0 135 0 135 45 0 45 0 0 -135z"/>
<path d="M1170 3645 l0 -45 -45 0 -45 0 0 -45 0 -45 45 0 45 0 0 -90 0 -90
-45 0 -45 0 0 -45 0 -45 135 0 135 0 0 45 0 45 -45 0 -45 0 0 180 0 180 -45 0
-45 0 0 -45z"/>
<path d="M1530 3645 l0 -45 45 0 45 0 0 45 0 45 -45 0 -45 0 0 -45z"/>
<path d="M1530 3465 l0 -45 45 0 45 0 0 45 0 45 -45 0 -45 0 0 -45z"/>
<path d="M1530 3285 l0 -45 45 0 45 0 0 45 0 45 -45 0 -45 0 0 -45z"/>
<path d="M360 2925 l0 -225 135 0 135 0 0 225 0 225 -135 0 -135 0 0 -225z
m180 0 l0 -135 -45 0 -45 0 0 135 0 135 45 0 45 0 0 -135z"/>
<path d="M720 2925 l0 -225 135 0 135 0 0 225 0 225 -135 0 -135 0 0 -225z
m180 0 l0 -135 -45 0 -45 0 0 135 0 135 45 0 45 0 0 -135z"/>
<path d="M1080 3105 l0 -45 90 0 90 0 0 -45 0 -45 -90 0 -90 0 0 -135 0 -135
135 0 135 0 0 45 0 45 -90 0 -90 0 0 45 0 45 90 0 90 0 0 135 0 135 -135 0
-135 0 0 -45z"/>
<path d="M1530 3105 l0 -45 45 0 45 0 0 45 0 45 -45 0 -45 0 0 -45z"/>
<path d="M1530 2925 l0 -45 45 0 45 0 0 45 0 45 -45 0 -45 0 0 -45z"/>
<path d="M1530 2745 l0 -45 45 0 45 0 0 45 0 45 -45 0 -45 0 0 -45z"/>
<path d="M360 2385 l0 -225 135 0 135 0 0 225 0 225 -135 0 -135 0 0 -225z
m180 0 l0 -135 -45 0 -45 0 0 135 0 135 45 0 45 0 0 -135z"/>
<path d="M720 2385 l0 -225 135 0 135 0 0 225 0 225 -135 0 -135 0 0 -225z
m180 0 l0 -135 -45 0 -45 0 0 135 0 135 45 0 45 0 0 -135z"/>
<path d="M1080 2565 l0 -45 90 0 90 0 0 -45 0 -45 -90 0 -90 0 0 -45 0 -45 90
0 90 0 0 -45 0 -45 -90 0 -90 0 0 -45 0 -45 135 0 135 0 0 225 0 225 -135 0
-135 0 0 -45z"/>
<path d="M1530 2565 l0 -45 45 0 45 0 0 45 0 45 -45 0 -45 0 0 -45z"/>
<path d="M1530 2385 l0 -45 45 0 45 0 0 45 0 45 -45 0 -45 0 0 -45z"/>
<path d="M1530 2205 l0 -45 45 0 45 0 0 45 0 45 -45 0 -45 0 0 -45z"/>
<path d="M360 1845 l0 -225 135 0 135 0 0 225 0 225 -135 0 -135 0 0 -225z
m180 0 l0 -135 -45 0 -45 0 0 135 0 135 45 0 45 0 0 -135z"/>
<path d="M720 1845 l0 -225 135 0 135 0 0 225 0 225 -135 0 -135 0 0 -225z
m180 0 l0 -135 -45 0 -45 0 0 135 0 135 45 0 45 0 0 -135z"/>
<path d="M1080 1935 l0 -135 90 0 90 0 0 -90 0 -90 45 0 45 0 0 225 0 225 -45
0 -45 0 0 -90 0 -90 -45 0 -45 0 0 90 0 90 -45 0 -45 0 0 -135z"/>
<path d="M1530 2025 l0 -45 45 0 45 0 0 45 0 45 -45 0 -45 0 0 -45z"/>
<path d="M1530 1845 l0 -45 45 0 45 0 0 45 0 45 -45 0 -45 0 0 -45z"/>
<path d="M1530 1665 l0 -45 45 0 45 0 0 45 0 45 -45 0 -45 0 0 -45z"/>
<path d="M360 1305 l0 -225 135 0 135 0 0 225 0 225 -135 0 -135 0 0 -225z
m180 0 l0 -135 -45 0 -45 0 0 135 0 135 45 0 45 0 0 -135z"/>
<path d="M720 1305 l0 -225 135 0 135 0 0 225 0 225 -135 0 -135 0 0 -225z
m180 0 l0 -135 -45 0 -45 0 0 135 0 135 45 0 45 0 0 -135z"/>
<path d="M1080 1395 l0 -135 90 0 90 0 0 -45 0 -45 -90 0 -90 0 0 -45 0 -45
135 0 135 0 0 135 0 135 -90 0 -90 0 0 45 0 45 90 0 90 0 0 45 0 45 -135 0
-135 0 0 -135z"/>
<path d="M1530 1485 l0 -45 45 0 45 0 0 45 0 45 -45 0 -45 0 0 -45z"/>
<path d="M1530 1305 l0 -45 45 0 45 0 0 45 0 45 -45 0 -45 0 0 -45z"/>
<path d="M1530 1125 l0 -45 45 0 45 0 0 45 0 45 -45 0 -45 0 0 -45z"/>
<path d="M360 765 l0 -225 135 0 135 0 0 225 0 225 -135 0 -135 0 0 -225z
m180 0 l0 -135 -45 0 -45 0 0 135 0 135 45 0 45 0 0 -135z"/>
<path d="M720 765 l0 -225 135 0 135 0 0 225 0 225 -135 0 -135 0 0 -225z
m180 0 l0 -135 -45 0 -45 0 0 135 0 135 45 0 45 0 0 -135z"/>
<path d="M1080 765 l0 -225 135 0 135 0 0 135 0 135 -90 0 -90 0 0 45 0 45 90
0 90 0 0 45 0 45 -135 0 -135 0 0 -225z m180 -90 l0 -45 -45 0 -45 0 0 45 0
45 45 0 45 0 0 -45z"/>
<path d="M1530 945 l0 -45 45 0 45 0 0 45 0 45 -45 0 -45 0 0 -45z"/>
<path d="M1530 765 l0 -45 45 0 45 0 0 45 0 45 -45 0 -45 0 0 -45z"/>
<path d="M1530 585 l0 -45 45 0 45 0 0 45 0 45 -45 0 -45 0 0 -45z"/>
<path d="M0 225 l0 -225 45 0 45 0 0 45 0 45 45 0 45 0 0 45 0 45 45 0 45 0 0
45 0 45 -45 0 -45 0 0 45 0 45 -45 0 -45 0 0 45 0 45 -45 0 -45 0 0 -225z"/>
<path d="M360 225 l0 -225 135 0 135 0 0 225 0 225 -135 0 -135 0 0 -225z
m180 0 l0 -135 -45 0 -45 0 0 135 0 135 45 0 45 0 0 -135z"/>
<path d="M720 225 l0 -225 135 0 135 0 0 225 0 225 -135 0 -135 0 0 -225z
m180 0 l0 -135 -45 0 -45 0 0 135 0 135 45 0 45 0 0 -135z"/>
<path d="M1080 405 l0 -45 90 0 90 0 0 -180 0 -180 45 0 45 0 0 225 0 225
-135 0 -135 0 0 -45z"/>
<path d="M1530 405 l0 -45 45 0 45 0 0 45 0 45 -45 0 -45 0 0 -45z"/>
<path d="M4950 405 l0 -45 -45 0 -45 0 0 -45 0 -45 -45 0 -45 0 0 -45 0 -45
45 0 45 0 0 -45 0 -45 45 0 45 0 0 -45 0 -45 45 0 45 0 0 225 0 225 -45 0 -45
0 0 -45z"/>
<path d="M1530 225 l0 -45 45 0 45 0 0 45 0 45 -45 0 -45 0 0 -45z"/>
<path d="M1530 45 l0 -45 45 0 45 0 0 45 0 45 -45 0 -45 0 0 -45z"/>
</g>
</svg>
